<svg width="23" height="28" viewBox="0 0 23 28" fill="none" xmlns="http://www.w3.org/2000/svg">
<g clip-path="url(#clip0_32_264)">
<path d="M12.5974 22.1339H10.4007C10.4007 23.0969 10.4028 24.0398 10.4007 24.9817C10.4007 25.3146 10.4102 25.6507 10.3786 25.9815C10.2933 26.8717 9.64428 27.4722 8.78037 27.4849C7.8996 27.4975 7.18951 26.8959 7.12841 25.9815C7.06941 25.0902 7.10523 24.1925 7.10101 23.297C7.09891 22.9293 7.10101 22.5606 7.10101 22.1034C6.63218 22.1034 6.18548 22.1076 5.73772 22.1034C4.65994 22.0918 4.05205 21.5186 4.04888 20.4535C4.03835 16.9431 4.04467 13.4316 4.04678 9.92119C4.04678 9.82005 4.06785 9.71996 4.0826 9.59564H18.9608V10.1688C18.9608 13.5212 18.9608 16.8746 18.9608 20.227C18.9608 21.5713 18.4245 22.1023 17.0728 22.1044C16.7073 22.1044 16.3417 22.1044 15.9055 22.1044C15.9055 22.6301 15.9097 23.1158 15.9055 23.6005C15.896 24.4422 15.934 25.2893 15.8507 26.1237C15.7664 26.9686 15.0321 27.5144 14.1872 27.4859C13.3686 27.4575 12.6911 26.8812 12.6427 26.0499C12.5816 24.9827 12.61 23.9102 12.6016 22.8398C12.5995 22.6154 12.6016 22.392 12.6016 22.1371L12.5974 22.1339Z" fill="white"/>
<path d="M7.54138 2.98779C7.67307 2.91509 7.7131 2.74442 7.62987 2.61904C7.2959 2.11018 6.97246 1.63398 6.68695 1.13776C6.67957 1.12511 6.67325 1.11247 6.66798 1.09877C6.56474 0.832227 6.94612 0.628892 7.11785 0.857512C7.11996 0.860673 7.12206 0.863834 7.12417 0.866994C7.48027 1.3727 7.80898 1.89842 8.16718 2.45469C8.2325 2.55688 8.35998 2.59797 8.47482 2.55794C10.4734 1.84995 12.4867 1.82888 14.5169 2.56321C14.6318 2.60429 14.7592 2.56321 14.8256 2.46101C15.1564 1.95215 15.4756 1.44855 15.8149 0.958653C15.9466 0.769014 16.0635 0.327578 16.3669 0.605714C16.5187 0.744783 16.3596 1.04399 16.2574 1.22415C15.9898 1.69298 15.6874 2.14284 15.3808 2.61378C15.3008 2.73704 15.3387 2.90245 15.4651 2.97725C17.6228 4.2552 18.9755 5.99883 18.9913 8.60846C18.9913 8.7528 18.8754 8.87185 18.7311 8.87185H4.28065C4.14052 8.87185 4.02674 8.76123 4.02042 8.62111C3.96458 7.40004 4.31647 6.31384 4.96651 5.30559C5.60812 4.31104 6.48572 3.57567 7.54138 2.98779ZM8.7498 5.58689C8.7361 5.19918 8.42214 4.90735 8.0239 4.91156C7.63198 4.91683 7.31697 5.22658 7.31592 5.60796C7.31486 6.00409 7.66675 6.33175 8.07131 6.31278C8.45586 6.29487 8.76244 5.96511 8.7498 5.58689ZM14.9615 6.31278C15.3471 6.31489 15.6716 6.00515 15.6821 5.62692C15.6927 5.24659 15.384 4.92526 14.9942 4.91156C14.5791 4.89681 14.2419 5.21604 14.2483 5.61955C14.2546 5.99777 14.5759 6.30962 14.9615 6.31173V6.31278Z" fill="white"/>
<path d="M0.00322073 14.4209C0.00322073 13.2978 -0.00310055 12.1747 0.00532783 11.0516C0.0137562 10.016 0.681706 9.31118 1.63727 9.30907C2.59389 9.30696 3.2787 10.016 3.28186 11.0432C3.28924 13.2894 3.28924 15.5345 3.28186 17.7806C3.2787 18.8205 2.61181 19.5148 1.64465 19.5169C0.676438 19.519 0.0137562 18.83 0.00532783 17.7891C-0.0041541 16.666 0.00322073 15.5429 0.00322073 14.4198V14.4209Z" fill="white"/>
<path d="M22.9967 14.4146C22.9967 15.5376 23.0041 16.6607 22.9946 17.7838C22.9862 18.8279 22.3298 19.5169 21.3616 19.5179C20.3924 19.5179 19.7213 18.8268 19.7181 17.7891C19.7097 15.5429 19.7107 13.2978 19.7181 11.0516C19.7213 10.0223 20.4008 9.31328 21.3564 9.31012C22.3109 9.30802 22.9862 10.0149 22.9946 11.0464C23.0041 12.1695 22.9967 13.2925 22.9967 14.4156V14.4146Z" fill="white"/>
</g>
<defs>
<clipPath id="clip0_32_264">
<rect width="23" height="26.9698" fill="white" transform="translate(0 0.515106)"/>
</clipPath>
</defs>
</svg>
