<svg width="25" height="19" viewBox="0 0 25 19" fill="none" xmlns="http://www.w3.org/2000/svg">
<g clip-path="url(#clip0_6_247)">
<path d="M0.017334 5.16687C0.252042 5.31762 0.406606 5.41494 0.561169 5.51798C3.61619 7.55402 6.6693 9.59007 9.72432 11.6261C11.3577 12.7138 12.6973 12.7138 14.3326 11.6261C17.3876 9.59007 20.4407 7.55402 23.4958 5.51798C23.6484 5.41684 23.8049 5.31953 24.011 5.18786C24.0205 5.39013 24.032 5.53706 24.032 5.68399C24.032 9.01379 24.032 12.3417 24.032 15.6715C24.032 17.2171 23.1332 18.1178 21.5857 18.1178C15.2085 18.1178 8.83129 18.1178 2.45601 18.1178C0.918002 18.1178 0.0211504 17.2095 0.0192422 15.6619C0.0192422 12.3321 0.0192422 9.00425 0.0192422 5.67445C0.0192422 5.53515 0.0192422 5.39585 0.0192422 5.16878L0.017334 5.16687Z" fill="black"/>
<path d="M12.0504 0.119615C15.2695 0.119615 18.4886 0.11389 21.7077 0.121523C23.2953 0.125339 24.4135 1.52786 23.9136 2.94947C23.759 3.38835 23.4175 3.84632 23.0339 4.10774C19.8053 6.30407 16.5499 8.45843 13.2964 10.6166C12.4205 11.1986 11.539 11.1471 10.6688 10.567C7.4745 8.43362 4.27637 6.30598 1.08205 4.17262C0.173751 3.56581 -0.171632 2.6766 0.112689 1.70914C0.391285 0.75886 1.24234 0.125339 2.29948 0.121523C5.54914 0.115798 8.8007 0.119615 12.0504 0.119615Z" fill="black"/>
</g>
<defs>
<clipPath id="clip0_6_247">
<rect width="24.0184" height="18" fill="white" transform="translate(0.0153809 0.117798)"/>
</clipPath>
</defs>
</svg>
